<svg width="68" height="68" viewBox="0 0 68 68" fill="none" xmlns="http://www.w3.org/2000/svg">
<circle cx="34" cy="34" r="34" fill="#FFE5E5"/>
<path d="M20.5331 40.5906C19.4955 38.9332 18.7338 37.123 18.2766 35.2287C18.244 35.0444 18.2814 34.8548 18.3817 34.6959C18.7622 34.1055 19.1844 33.5421 19.6451 33.01C20.4089 32.1764 20.9181 31.2613 20.9404 30.1175C20.9404 28.5693 20.1289 27.8611 18.4899 28.0993C18.6267 27.7577 18.7254 27.4474 18.8686 27.1591C20.1702 24.4985 22.1944 22.7091 25.2337 22.2672C27.9198 21.8755 30.2939 22.6433 32.3435 24.3888C32.6175 24.6273 32.8778 24.8804 33.1232 25.1472C33.8552 25.915 34.1385 25.9244 34.845 25.1629C35.682 24.2394 36.7009 23.4931 37.8398 22.9692C42.6136 20.8257 47.8425 23.104 49.4561 28.0303C49.4275 28.0523 49.3925 28.0961 49.3734 28.0899C47.9667 27.6637 46.7605 28.7323 47.0915 30.669C47.2364 31.5328 47.6553 32.3292 48.2881 32.9441C48.3709 33.0225 48.4568 33.1008 48.5363 33.1823C49.4529 34.1005 49.9971 35.0626 49.3606 36.4195C48.7241 37.7765 48.164 39.193 47.5561 40.622C46.7658 40.3225 46.1002 39.7708 45.6657 39.0551C45.4302 38.6884 45.2297 38.2936 44.9751 37.9426C44.7253 37.5629 44.3333 37.2958 43.8844 37.1995C43.4354 37.1032 42.9661 37.1856 42.5786 37.4286C41.748 37.9018 41.4934 38.7605 41.8148 39.685C42.0599 40.3964 42.184 41.1485 42.3877 41.8786C42.6773 42.9159 42.9892 43.947 43.3074 45.0375C41.2967 46.628 39.0776 47.9446 36.71 48.9517C34.5554 49.8918 32.5727 49.5502 30.5549 48.6571C28.538 47.7532 26.64 46.6114 24.9027 45.2569C24.7978 45.1942 24.7211 45.0943 24.6886 44.9778C24.6561 44.8612 24.67 44.7369 24.7277 44.6301C25.1414 43.2325 25.5201 41.8097 25.9148 40.4214C25.9911 40.1488 26.0675 39.8761 26.1694 39.6129C26.335 39.215 26.3454 38.7709 26.1985 38.3659C26.0517 37.9609 25.7579 37.6238 25.3737 37.4192C24.9943 37.1822 24.5365 37.099 24.0962 37.1873C23.6559 37.2755 23.2674 37.5282 23.0123 37.8924C22.7513 38.2434 22.5476 38.632 22.3185 39.0049C21.9122 39.709 21.2861 40.2651 20.5331 40.5906ZM33.9921 38.1776C33.6738 38.1776 33.3365 38.1776 33.0119 38.1776C32.6872 38.1776 32.5695 38.3406 32.6522 38.6696C32.7311 38.9455 32.8969 39.1896 33.1257 39.3668C33.3546 39.544 33.6346 39.645 33.9255 39.6555C34.2163 39.666 34.5031 39.5852 34.7444 39.425C34.9857 39.2647 35.1692 39.0331 35.2683 38.7636C35.3829 38.3876 35.2906 38.1713 34.8577 38.1713L33.9921 38.1776ZM38.7404 33.6587C38.0686 33.7049 37.4361 33.9874 36.9582 34.4546C36.8596 34.5581 36.8755 34.768 36.8373 34.9372C37.0187 34.9372 37.2669 35.0187 37.3783 34.9372C38.0721 34.3826 38.7818 34.2071 39.6061 34.674C39.7207 34.7398 39.9244 34.6395 40.1089 34.6176C40.0421 34.4421 40.0262 34.1757 39.8989 34.1099C39.524 33.933 39.1369 33.7822 38.7404 33.6587ZM29.336 33.5991C28.8924 33.7431 28.4578 33.9126 28.0343 34.1068C27.9102 34.1726 27.8943 34.4202 27.8307 34.6019C27.9993 34.627 28.2157 34.7304 28.3303 34.6646C29.1514 34.2071 29.8643 34.3794 30.5581 34.931C30.6695 35.0187 30.8923 34.9686 31.0673 34.9843C31.0387 34.8025 31.0673 34.5204 30.9687 34.4578C30.4372 34.1319 29.8643 33.8655 29.3424 33.5991H29.336Z" fill="#FF383C"/>
<path d="M50.8754 30.7224C51.0593 30.3914 51.2723 30.0768 51.5119 29.7823C51.5967 29.6696 51.7109 29.5818 51.8425 29.5282C51.974 29.4745 52.1179 29.4571 52.2588 29.4776C52.3996 29.4982 52.5321 29.5561 52.6422 29.6451C52.7522 29.7341 52.8356 29.8508 52.8835 29.9828C54.1056 32.5431 55.1591 35.163 55.4773 38.0054C55.6046 39.1367 55.7065 40.268 55.8369 41.3993C56.0122 42.7553 56.494 44.0553 57.2468 45.2037C58.9431 47.9051 57.6383 51.7221 54.7008 52.7249C54.0247 52.9537 53.3076 53.0413 52.5952 52.9819C51.8829 52.9226 51.1909 52.7176 50.5635 52.3802C47.3554 50.8133 45.3218 48.2059 44.0901 44.9812C43.4982 43.43 43.1354 41.7942 42.6707 40.1959C42.5912 39.9233 42.5275 39.6475 42.4289 39.3811C42.3203 39.1361 42.3085 38.86 42.3956 38.6067C42.4827 38.3535 42.6625 38.1414 42.8999 38.0116C43.1225 37.854 43.399 37.7883 43.6702 37.8287C43.9414 37.8691 44.1858 38.0124 44.3511 38.2279C44.5803 38.5036 44.7139 38.8546 44.9463 39.1304C45.395 39.7371 45.907 40.2958 46.4739 40.7976C47.4286 41.5372 48.342 41.4839 49.3382 40.8133C50.7799 39.8512 51.3941 38.1464 50.9295 36.2818C50.5921 34.8518 49.8545 33.5436 48.8003 32.5055C48.397 32.1487 48.089 31.6997 47.9037 31.1979C47.7183 30.6962 47.6612 30.1573 47.7374 29.6287C47.7495 29.4185 47.8277 29.2172 47.9611 29.0527C48.0945 28.8882 48.2766 28.7686 48.4821 28.7105C48.6783 28.6531 48.8882 28.6607 49.0796 28.732C49.271 28.8033 49.4334 28.9345 49.5419 29.1054C49.9811 29.6444 50.4202 30.1708 50.8754 30.7224Z" fill="#AC7F5E"/>
<path d="M17.1209 30.6754C17.5887 30.1176 18.0216 29.6131 18.4385 29.0928C18.7185 28.745 19.1005 28.5225 19.4887 28.7419C19.8256 28.9325 20.0768 29.2415 20.1921 29.6068C20.4308 30.735 19.982 31.697 19.18 32.4899C17.9267 33.6898 17.1272 35.2753 16.914 36.9838C16.785 37.7389 16.8897 38.5147 17.2143 39.2105C17.5389 39.9063 18.0686 40.4899 18.7345 40.8854C19.6256 41.4557 20.5708 41.5466 21.4142 40.8603C21.9929 40.3434 22.5253 39.7782 23.0054 39.1712C23.225 38.9142 23.346 38.5758 23.5528 38.3062C23.6278 38.1886 23.726 38.0869 23.8416 38.0072C23.9571 37.9275 24.0877 37.8714 24.2257 37.8421C24.3636 37.8129 24.5061 37.8112 24.6447 37.8371C24.7833 37.863 24.9152 37.916 25.0327 37.9929C25.5738 38.2906 25.717 38.7983 25.5419 39.3968C25.2014 40.5751 24.9468 41.7816 24.5872 42.96C23.7852 45.6644 22.6108 48.1778 20.5199 50.1677C19.2469 51.3836 17.8402 52.3959 16.0898 52.8315C15.4026 53.0081 14.6845 53.0336 13.9862 52.9061C13.288 52.7786 12.6268 52.5013 12.0496 52.0939C11.4724 51.6865 10.9935 51.159 10.6466 50.5488C10.2998 49.9386 10.0937 49.2607 10.0429 48.5632C9.87709 47.2365 10.1951 45.8949 10.9404 44.7776C11.8474 43.452 12.1402 41.9164 12.2134 40.3526C12.4235 36.7017 13.4864 33.289 15.0777 30.0111C15.396 29.331 16.0547 29.2464 16.5544 29.8136C16.7646 30.0867 16.954 30.3747 17.1209 30.6754Z" fill="#AC7F5E"/>
<path d="M45.2104 15C45.5604 15.3134 45.9042 15.492 46.0506 15.7741C46.3406 16.3489 46.8148 16.8137 47.4 17.0965C48.2497 17.5259 48.2497 18.3657 47.4 18.8045C46.8184 19.089 46.3477 19.5536 46.0601 20.1269C45.6273 20.9605 44.7871 20.9542 44.332 20.1112C44.0418 19.5373 43.5675 19.0736 42.9826 18.7919C42.1678 18.3783 42.1615 17.5384 42.9826 17.1247C43.5847 16.8317 44.0731 16.3531 44.3734 15.7615C44.5134 15.4826 44.8603 15.304 45.2104 15Z" fill="#FF383C"/>
<path d="M50.7919 24.6961C50.5691 24.5081 50.3972 24.3827 50.2413 24.2292C49.9573 23.9129 49.6533 23.6146 49.3311 23.3361C48.8219 22.9569 48.8346 22.5463 49.3693 22.1734C49.6877 21.9436 49.967 21.6654 50.1967 21.3492C50.5786 20.8165 50.9924 20.8071 51.3838 21.3147C51.6487 21.6476 51.9569 21.9447 52.3004 22.1985C52.7492 22.5432 52.7523 22.9631 52.3004 23.3141C51.9567 23.5899 51.6639 23.9409 51.3456 24.2355C51.1929 24.3859 51.0178 24.5112 50.7919 24.6961Z" fill="#FF383C"/>
</svg>
